# xmcd
#
# Track frame offsets: 
#        150
#        16815
#        34049
#        49130
#        65157
#        77186
#        93858
#        122543
#        141632
#        157355
#        186717
#        215626
#        249736
#
# Disc length: 3606 seconds
#
# Revision: 0
# Processed by: cddbd v1.5.2PL0 Copyright (c) Steve Scherf et al.
# Submitted via: ExactAudioCopy v0.95b4
#
DISCID=c80e140d
DTITLE=Eric Clapton - 1993-10-14 - Rainbow Night
DYEAR=1993
DGENRE=Blues
TTITLE0=Malted Milk
TTITLE1=Terraplane Blues
TTITLE2=How Long
TTITLE3=32-20
TTITLE4=Kidman Blues
TTITLE5=County Jail Blues
TTITLE6=44
TTITLE7=Leave Me Alone
TTITLE8=Tell Me Mama
TTITLE9=White Room
TTITLE10=Badge
TTITLE11=Wonderful Tonight
TTITLE12=Stone Free
EXTD=
EXTT0=
EXTT1=
EXTT2=
EXTT3=
EXTT4=
EXTT5=
EXTT6=
EXTT7=
EXTT8=
EXTT9=
EXTT10=
EXTT11=
EXTT12=
PLAYORDER=
